{"title":"The.Impaler.2013.HDRiP.XViD.AC3-FiRE","uid":9758208,"size":1612291160,"categoryP":"video","categoryS":"movies","magnet":"?xt=urn:btih:7c0ec2519f379416d4c9dd997d1a0b5c21472c9f&amp;dn=The.Impaler.2013.HDRiP.XViD.AC3-FiRE&amp;tr=udp%3A%2F%2Ftracker.openbittorrent.com%3A80&amp;tr=udp%3A%2F%2Fopen.demonii.com%3A1337&amp;tr=udp%3A%2F%2Ftracker.coppersurfer.tk%3A6969&amp;tr=udp%3A%2F%2Fexodus.desync.com%3A6969","seeders":5,"leechers":0,"uploader":"Acesn8s","files":-1,"time":1394771102,"description":"Cover:\n &lt;a href=&quot;\nhttp://img.acianetmedia.com/i/IOaSg.png&quot; rel=&quot;nofollow&quot; target=&quot;_NEW&quot;&gt;\nhttp://img.acianetmedia.com/i/IOaSg.png&lt;/a&gt;\n\n**********************************************************************************\n\nThe.Impaler.2013.HDRiP.XViD.AC3-FiRE\n\n**********************************************************************************\n\nGeneral Info:\n\nFormat                                   : AVI\nFormat/Info                              : Audio Video Interleave\nFile size                                : 1.50 GiB\nDuration                                 : 1h 25mn\nOverall bit rate                         : 2 520 Kbps\nWriting application                      : VirtualDubMod 1.5.10.2 2542/release\nWriting library                          : VirtualDubMod build 2542/release\n\n**********************************************************************************\n\nVideo\n\nID                                       : 0\nFormat                                   : MPEG-4 Visual\nFormat profile                           : Advanced Simple@L5\nFormat settings, BVOP                    : 2\nFormat settings, QPel                    : No\nFormat settings, GMC                     : No warppoints\nFormat settings, Matrix                  : Custom\nMuxing mode                              : Packed bitstream\nCodec ID                                 : XVID\nCodec ID/Hint                            : XviD\nDuration                                 : 1h 25mn\nBit rate                                 : 2 127 Kbps\nWidth                                    : 720 pixels\nHeight                                   : 400 pixels\nDisplay aspect ratio                     : 16:9\nFrame rate                               : 23.976 fps\nColor space                              : YUV\nChroma subsampling                       : 4:2:0\nBit depth                                : 8 bits\nScan type                                : Progressive\nCompression mode                         : Lossy\nBits/(Pixel*Frame)                       : 0.308\nStream size                              : 1.27 GiB (84%)\nWriting library                          : XviD 61\n\n**********************************************************************************\n\nAudio\n\nID                                       : 1\nFormat                                   : AC-3\nFormat/Info                              : Audio Coding 3\nMode extension                           : CM (complete main)\nFormat settings, Endianness              : Big\nCodec ID                                 : 2000\nDuration                                 : 1h 25mn\nBit rate mode                            : Constant\nBit rate                                 : 384 Kbps\nChannel(s)                               : 6 channels\nChannel positions                        : Front: L C R, Side: L R, LFE\nSampling rate                            : 48.0 KHz\nBit depth                                : 16 bits\nCompression mode                         : Lossy\nStream size                              : 234 MiB (15%)\nAlignment                                : Split accross interleaves\nInterleave, duration                     : 42 ms (1.00 video frame)\nInterleave, preload duration             : 500 ms\nSource                                   : iTunes\n\n**********************************************************************************\n\nIMDb Info:\n &lt;a href=&quot;\nhttp://www.imdb.com/title/tt2543202/&quot; rel=&quot;nofollow&quot; target=&quot;_NEW&quot;&gt;\nhttp://www.imdb.com/title/tt2543202/&lt;/a&gt;\n\nGenre: Action | Horror | Thriller \n\nRelease date: 31 October 2013 (USA)\n \nActors: Diana Busuioc, Christian Gehring, Christina Collard\n\nPlot: Seven high-school friends begin their Euro-trip at the actual castle\nof Vlad the Impaler where he supposedly sold his soul to the devil over 500 years earlier, but the decrepit castle's past envelopes them in a bloody ritual. \n\n**********************************************************************************\n\nScreens:\n &lt;a href=&quot;\nhttp://img.acianetmedia.com/i/qdGuM.png&quot; rel=&quot;nofollow&quot; target=&quot;_NEW&quot;&gt;\nhttp://img.acianetmedia.com/i/qdGuM.png&lt;/a&gt;\n &lt;a href=&quot;\nhttp://img.acianetmedia.com/i/dzj4R.png&quot; rel=&quot;nofollow&quot; target=&quot;_NEW&quot;&gt;\nhttp://img.acianetmedia.com/i/dzj4R.png&lt;/a&gt;\n &lt;a href=&quot;\nhttp://img.acianetmedia.com/i/Gf9eJ.png&quot; rel=&quot;nofollow&quot; target=&quot;_NEW&quot;&gt;\nhttp://img.acianetmedia.com/i/Gf9eJ.png&lt;/a&gt;\n &lt;a href=&quot;\nhttp://img.acianetmedia.com/i/OjM1k.png&quot; rel=&quot;nofollow&quot; target=&quot;_NEW&quot;&gt;\nhttp://img.acianetmedia.com/i/OjM1k.png&lt;/a&gt;\n &lt;a href=&quot;\nhttp://img.acianetmedia.com/i/8Igka.png&quot; rel=&quot;nofollow&quot; target=&quot;_NEW&quot;&gt;\nhttp://img.acianetmedia.com/i/8Igka.png&lt;/a&gt;","torrent":{"xt":"urn:btih:7c0ec2519f379416d4c9dd997d1a0b5c21472c9f","amp;dn":"The.Impaler.2013.HDRiP.XViD.AC3-FiRE","amp;tr":["udp%3A%2F%2Ftracker.openbittorrent.com%3A80","udp%3A%2F%2Fopen.demonii.com%3A1337","udp%3A%2F%2Ftracker.coppersurfer.tk%3A6969","udp%3A%2F%2Fexodus.desync.com%3A6969"],"infoHash":"7c0ec2519f379416d4c9dd997d1a0b5c21472c9f","infoHashBuffer":{"type":"Buffer","data":[124,14,194,81,159,55,148,22,212,201,221,153,125,26,11,92,33,71,44,159]},"announce":[],"urlList":[]}}